HIERARCHY
ROOT Hips
{
	OFFSET 0.000000 0.000000 0.000000
	CHANNELS 6 Xposition Yposition Zposition Xrotation Yrotation Zrotation
	JOINT LeftUpLeg_virtual
	{
		OFFSET 0.000000 0.000000 0.000000
		CHANNELS 3 Xrotation Yrotation Zrotation
		JOINT LeftUpLeg
		{
			OFFSET 15.427100 -6.655098 0.678600
			CHANNELS 3 Xrotation Yrotation Zrotation
			JOINT LeftLeg
			{
				OFFSET 4.081073 -39.591068 13.024000
				CHANNELS 3 Xrotation Yrotation Zrotation
				JOINT LeftFoot
				{
					OFFSET -4.081074 -37.707932 -15.979700
					CHANNELS 3 Xrotation Yrotation Zrotation
					JOINT LeftToeBase
					{
						OFFSET 5.346399 -15.068900 20.645000
						CHANNELS 3 Xrotation Yrotation Zrotation
						JOINT LeftToe_End
						{
							OFFSET 2.754700 0.931300 11.300900
							CHANNELS 3 Xrotation Yrotation Zrotation
							End Site
							{
								OFFSET 0 0 0
							}
						}
					}
				}
			}
		}
	}
	JOINT RightUpLeg_virtual
	{
		OFFSET 0.000000 0.000000 0.000000
		CHANNELS 3 Xrotation Yrotation Zrotation
		JOINT RightUpLeg
		{
			OFFSET -15.569500 -6.655098 0.678600
			CHANNELS 3 Xrotation Yrotation Zrotation
			JOINT RightLeg
			{
				OFFSET -4.081825 -39.591045 13.023800
				CHANNELS 3 Xrotation Yrotation Zrotation
				JOINT RightFoot
				{
					OFFSET 4.081824 -37.707954 -15.979600
					CHANNELS 3 Xrotation Yrotation Zrotation
					JOINT RightToeBase
					{
						OFFSET -5.346400 -15.068900 20.645000
						CHANNELS 3 Xrotation Yrotation Zrotation
						JOINT RightToe_End
						{
							OFFSET -2.754700 0.931300 11.300900
							CHANNELS 3 Xrotation Yrotation Zrotation
							End Site
							{
								OFFSET 0 0 0
							}
						}
					}
				}
			}
		}
	}
	JOINT Spine_virtual
	{
		OFFSET 0.000000 0.000000 0.000000
		CHANNELS 3 Xrotation Yrotation Zrotation
		JOINT Spine
		{
			OFFSET -0.279200 12.230698 -2.892100
			CHANNELS 3 Xrotation Yrotation Zrotation
			JOINT Spine1
			{
				OFFSET -0.232667 10.192268 -1.242267
				CHANNELS 3 Xrotation Yrotation Zrotation
				JOINT Spine1_split
				{
					OFFSET -0.232667 10.192268 -1.242267
					CHANNELS 3 Xrotation Yrotation Zrotation
					JOINT Spine2
					{
						OFFSET -0.232667 10.192268 -1.242267
						CHANNELS 3 Xrotation Yrotation Zrotation
						JOINT Neck_virtual
						{
							OFFSET 0.000000 0.000000 0.000000
							CHANNELS 3 Xrotation Yrotation Zrotation
							JOINT Neck
							{
								OFFSET -0.418800 17.814194 8.416900
								CHANNELS 3 Xrotation Yrotation Zrotation
								JOINT Head
								{
									OFFSET 0.000000 7.031097 3.806800
									CHANNELS 3 Xrotation Yrotation Zrotation
									JOINT HeadTop_End
									{
										OFFSET 0.000000 24.646606 12.978600
										CHANNELS 3 Xrotation Yrotation Zrotation
										End Site
										{
											OFFSET 0 0 0
										}
									}
								}
							}
						}
						JOINT LeftShoulder_virtual
						{
							OFFSET 0.000000 0.000000 0.000000
							CHANNELS 3 Xrotation Yrotation Zrotation
							JOINT LeftShoulder
							{
								OFFSET 8.476499 7.247704 -3.868750
								CHANNELS 3 Xrotation Yrotation Zrotation
								JOINT LeftShoulder_split
								{
									OFFSET 8.476499 7.247704 -3.868750
									CHANNELS 3 Xrotation Yrotation Zrotation
									JOINT LeftArm
									{
										OFFSET 9.308998 -2.777710 0.208600
										CHANNELS 3 Xrotation Yrotation Zrotation
										JOINT LeftForeArm
										{
											OFFSET 29.972298 0.000000 0.000000
											CHANNELS 3 Xrotation Yrotation Zrotation
											JOINT LeftHand
											{
												OFFSET 26.026505 0.000000 0.000000
												CHANNELS 3 Xrotation Yrotation Zrotation
												End Site
												{
													OFFSET 0 0 0
												}
											}
										}
									}
								}
							}
						}
						JOINT RightShoulder_virtual
						{
							OFFSET 0.000000 0.000000 0.000000
							CHANNELS 3 Xrotation Yrotation Zrotation
							JOINT RightShoulder
							{
								OFFSET -7.570500 7.247704 -3.868750
								CHANNELS 3 Xrotation Yrotation Zrotation
								JOINT RightShoulder_split
								{
									OFFSET -7.570500 7.247704 -3.868750
									CHANNELS 3 Xrotation Yrotation Zrotation
									JOINT RightArm
									{
										OFFSET -9.308998 -2.777710 0.208500
										CHANNELS 3 Xrotation Yrotation Zrotation
										JOINT RightForeArm
										{
											OFFSET -29.972300 0.000000 0.000000
											CHANNELS 3 Xrotation Yrotation Zrotation
											JOINT RightHand
											{
												OFFSET -26.026505 0.000000 0.000000
												CHANNELS 3 Xrotation Yrotation Zrotation
												End Site
												{
													OFFSET 0 0 0
												}
											}
										}
									}
								}
							}
						}
					}
				}
			}
		}
	}
}
MOTION
Frames: 11
Frame Time: 0.03333333
3.700020 88.950386 6.757166 0.000000 0.000000 0.000000 -30.413002 -35.042320 -19.850487 1.741866 11.259344 3.066155 31.537371 -0.597896 -2.702434 -10.064178 5.566665 3.352487 0.126835 0.000004 0.000001 0.000000 0.000000 0.000000 -30.413002 -35.042320 -19.850487 17.208231 -10.093621 -6.999930 28.388715 7.166141 -4.273375 -19.781951 -13.685520 3.975100 0.770556 -0.002446 0.562983 0.000000 0.000000 0.000000 -30.413002 -35.042320 -19.850487 11.241335 -4.922884 -0.097565 3.545655 -2.400651 -0.151373 0.000000 0.000000 0.000000 0.000000 0.000000 0.000000 3.557025 -2.388380 -0.108336 1.405438 0.338757 -0.804159 -7.334353 -0.833461 4.801417 0.000000 0.000000 0.000000 3.557025 -2.388380 -0.108336 0.566128 -16.514906 -10.358600 0.000000 0.000000 0.000000 -20.119398 4.478000 -37.028709 0.000037 -67.657067 0.000016 0.000000 0.000000 0.000000 3.557025 -2.388380 -0.108336 0.045596 14.239519 15.204264 0.000000 0.000000 0.000000 -11.558842 -5.458997 60.927418 -0.000007 39.374080 0.000024 0.000000 0.000000 0.000000 
4.478203 89.045990 7.479893 0.000000 0.000000 0.000000 -31.296248 -37.074465 -21.415298 2.820930 12.112847 2.913350 30.482523 -1.004158 -3.891847 -10.342934 7.193350 6.298000 -0.028723 -0.000507 0.144905 0.000000 0.000000 0.000000 -31.296248 -37.074465 -21.415298 16.463164 -9.247550 -7.341766 28.263417 6.377742 -5.327011 -18.733682 -12.564958 5.597718 0.494945 -0.001022 0.363145 0.000000 0.000000 0.000000 -31.296248 -37.074465 -21.415298 11.246169 -4.942394 -0.042313 3.545656 -2.400645 -0.151373 0.000000 0.000000 0.000000 0.000000 0.000000 0.000000 3.557025 -2.388376 -0.108336 1.375141 0.323727 -0.752560 -7.477938 -1.010720 4.744158 0.000000 0.000000 0.000000 3.557025 -2.388376 -0.108336 0.571844 -16.587608 -10.332637 0.000000 0.000000 0.000000 -20.150634 4.605163 -37.056484 0.000037 -67.693117 0.000021 0.000000 0.000000 0.000000 3.557025 -2.388376 -0.108336 0.025379 14.173667 15.395887 0.000000 0.000000 0.000000 -11.518550 -5.405236 60.741453 -0.000002 39.512801 -0.000007 0.000000 0.000000 0.000000 
5.274662 89.034248 8.080965 0.000000 0.000000 0.000000 -32.300525 -39.138186 -22.973647 3.142673 12.656257 2.559045 30.336719 -1.868257 -4.817688 -10.589336 9.749083 8.646496 -0.168021 0.002427 -0.292508 0.000000 0.000000 0.000000 -32.300525 -39.138186 -22.973647 15.513286 -8.789702 -7.990957 28.529000 5.081300 -5.920347 -17.717427 -12.440234 6.781033 0.355672 -0.000543 0.261005 0.000000 0.000000 0.000000 -32.300525 -39.138186 -22.973647 11.240932 -4.928289 -0.102832 3.545656 -2.400652 -0.151373 0.000000 0.000000 0.000000 0.000000 0.000000 0.000000 3.557025 -2.388375 -0.108335 1.314813 0.322523 -0.750641 -7.907086 -0.936240 4.513180 0.000000 0.000000 0.000000 3.557025 -2.388375 -0.108335 0.579611 -16.606978 -10.288915 0.000000 0.000000 0.000000 -19.994009 4.524802 -36.978631 -0.000006 -67.695193 -0.000003 0.000000 0.000000 0.000000 3.557025 -2.388375 -0.108335 0.007978 14.220993 15.529857 0.000000 0.000000 0.000000 -11.429891 -5.404809 60.569967 0.000018 39.667198 -0.000025 0.000000 0.000000 0.000000 
6.044443 89.012543 8.695950 0.000000 0.000000 0.000000 -33.417759 -41.185774 -24.609395 3.576579 13.130718 2.037126 30.094961 -2.716490 -5.451469 -11.561698 12.440866 10.536690 0.280140 0.002073 -0.519519 0.000000 0.000000 0.000000 -33.417759 -41.185774 -24.609395 14.355413 -8.774711 -8.663410 28.897981 4.979964 -5.982803 -16.314923 -14.648222 7.100507 0.069468 -0.000037 0.074046 0.000000 0.000000 0.000000 -33.417759 -41.185774 -24.609395 11.233628 -4.908754 -0.187752 3.545656 -2.400647 -0.151373 0.000000 0.000000 0.000000 0.000000 0.000000 0.000000 3.557024 -2.388380 -0.108336 1.244411 0.349207 -0.810673 -8.403956 -0.613163 4.203381 0.000000 0.000000 0.000000 3.557024 -2.388380 -0.108336 0.581072 -16.531952 -10.273113 0.000000 0.000000 0.000000 -19.827091 4.304716 -36.893858 0.000019 -67.649124 0.000026 0.000000 0.000000 0.000000 3.557024 -2.388380 -0.108336 0.004873 14.295186 15.534097 0.000000 0.000000 0.000000 -11.379680 -5.432812 60.532080 -0.000001 39.716741 -0.000000 0.000000 0.000000 0.000000 
6.719757 88.870529 9.361547 0.000000 0.000000 0.000000 -34.681307 -43.243468 -26.279599 3.980612 13.712136 1.557987 30.013600 -3.422156 -5.966027 -12.550415 14.939017 11.669700 0.417634 0.002913 -0.617130 0.000000 0.000000 0.000000 -34.681307 -43.243468 -26.279599 12.500588 -8.743755 -8.575122 30.065113 6.071348 -5.870478 -15.091762 -18.828397 6.131601 -0.305251 0.000008 -0.000004 0.000000 0.000000 0.000000 -34.681307 -43.243468 -26.279599 11.217778 -4.862681 -0.372609 3.545657 -2.400649 -0.151373 0.000000 0.000000 0.000000 0.000000 0.000000 0.000000 3.557024 -2.388380 -0.108336 1.195443 0.388309 -0.891236 -8.722706 -0.261789 3.985372 0.000000 0.000000 0.000000 3.557024 -2.388380 -0.108336 0.586139 -16.366146 -10.226843 0.000000 0.000000 0.000000 -19.851634 4.116393 -37.021172 -0.000021 -67.544697 -0.000039 0.000000 0.000000 0.000000 3.557024 -2.388380 -0.108336 0.003391 14.360917 15.529847 0.000000 0.000000 0.000000 -11.341105 -5.462485 60.508892 -0.000002 39.752596 0.000004 0.000000 0.000000 0.000000 
7.284294 88.630569 10.057125 0.000000 0.000000 0.000000 -36.102314 -45.292139 -28.021657 4.478821 14.305332 1.511786 30.326412 -2.053389 -6.432985 -13.555183 15.212558 11.780184 0.501790 0.003522 -0.678005 0.000000 0.000000 0.000000 -36.102314 -45.292139 -28.021657 10.490631 -8.440212 -8.638444 32.000782 3.010912 -5.736158 -15.207454 -18.353912 5.532987 -0.212525 0.000012 0.000004 0.000000 0.000000 0.000000 -36.102314 -45.292139 -28.021657 11.195871 -4.798363 -0.631391 3.545655 -2.400648 -0.151373 0.000000 0.000000 0.000000 0.000000 0.000000 0.000000 3.557024 -2.388381 -0.108336 1.183322 0.417439 -0.946590 -8.778258 -0.075420 3.932015 0.000000 0.000000 0.000000 3.557024 -2.388381 -0.108336 0.600053 -16.178596 -10.123239 0.000000 0.000000 0.000000 -20.038955 4.037601 -37.343889 0.000008 -67.415483 0.000012 0.000000 0.000000 0.000000 3.557024 -2.388381 -0.108336 -0.008666 14.407521 15.620936 0.000000 0.000000 0.000000 -11.242564 -5.415477 60.366653 0.000001 39.865027 -0.000021 0.000000 0.000000 0.000000 
7.787868 88.288330 10.718857 0.000000 0.000000 0.000000 -37.701985 -47.325237 -29.852841 4.904495 14.952450 1.474344 30.864440 -0.533238 -6.895166 -14.609211 15.268599 11.735105 0.532477 0.003753 -0.700955 0.000000 0.000000 0.000000 -37.701985 -47.325237 -29.852841 8.596842 -8.534241 -7.895986 34.775642 0.489483 -5.706145 -16.604929 -16.524359 2.826339 0.244440 -0.000034 -0.000001 0.000000 0.000000 0.000000 -37.701985 -47.325237 -29.852841 11.167790 -4.715023 -0.968039 3.545655 -2.400650 -0.151373 0.000000 0.000000 0.000000 0.000000 0.000000 0.000000 3.557025 -2.388381 -0.108336 1.192629 0.430591 -0.966581 -8.643788 -0.060020 3.983614 0.000000 0.000000 0.000000 3.557025 -2.388381 -0.108336 0.608274 -16.057865 -10.059849 0.000000 0.000000 0.000000 -20.202323 4.019560 -37.580063 0.000006 -67.332831 -0.000001 0.000000 0.000000 0.000000 3.557025 -2.388381 -0.108336 -0.021356 14.391711 15.735460 0.000000 0.000000 0.000000 -11.108959 -5.227249 60.183413 -0.000018 39.961384 0.000027 0.000000 0.000000 0.000000 
8.301483 87.904037 11.309365 0.000000 0.000000 0.000000 -39.487834 -49.317377 -31.836184 5.255269 15.507738 1.504673 31.462146 0.987646 -7.517958 -15.616258 15.352175 11.687809 0.537209 0.003820 -0.704813 0.000000 0.000000 0.000000 -39.487834 -49.317377 -31.836184 7.075723 -9.117253 -7.164170 37.736843 -0.357650 -5.234528 -17.055399 -14.829276 0.352665 0.272483 -0.001047 0.367576 0.000000 0.000000 0.000000 -39.487834 -49.317377 -31.836184 11.138346 -4.621705 -1.328002 3.545656 -2.400651 -0.151373 0.000000 0.000000 0.000000 0.000000 0.000000 0.000000 3.557025 -2.388378 -0.108336 1.194267 0.435844 -0.969273 -8.463742 -0.121018 4.055448 0.000000 0.000000 0.000000 3.557025 -2.388378 -0.108336 0.593604 -16.031480 -10.148307 0.000000 0.000000 0.000000 -20.271563 4.012381 -37.544126 0.000047 -67.336028 0.000049 0.000000 0.000000 0.000000 3.557025 -2.388378 -0.108336 -0.017896 14.282175 15.743538 0.000000 0.000000 0.000000 -11.067283 -4.992242 60.152411 0.000000 39.902177 0.000010 0.000000 0.000000 0.000000 
8.851530 87.569023 11.800822 0.000000 0.000000 0.000000 -41.453825 -51.233669 -34.058465 5.550392 15.932721 1.703835 31.993371 2.559874 -8.286006 -16.463778 15.436485 11.596129 0.553904 0.003951 -0.716727 0.000000 0.000000 0.000000 -41.453825 -51.233669 -34.058465 6.656394 -10.146483 -6.879356 40.181077 -1.721724 -4.506426 -17.629130 -13.614765 -1.570734 -0.601655 -0.027635 1.872601 0.000000 0.000000 0.000000 -41.453825 -51.233669 -34.058465 11.114962 -4.532266 -1.620049 3.545655 -2.400649 -0.151373 0.000000 0.000000 0.000000 0.000000 0.000000 0.000000 3.557025 -2.388382 -0.108336 1.176547 0.441932 -0.977212 -8.374179 -0.185147 4.099850 0.000000 0.000000 0.000000 3.557025 -2.388382 -0.108336 0.560066 -16.038138 -10.355852 0.000000 0.000000 0.000000 -20.352239 4.023114 -37.374563 -0.000001 -67.382924 -0.000019 0.000000 0.000000 0.000000 3.557025 -2.388382 -0.108336 -0.000483 14.137506 15.641446 0.000000 0.000000 0.000000 -11.182416 -4.907260 60.317175 -0.000000 39.719329 0.000001 0.000000 0.000000 0.000000 
9.395496 87.343155 12.157625 0.000000 0.000000 0.000000 -43.592863 -53.048406 -36.580321 5.772065 16.229438 2.090968 32.459880 4.237915 -8.971802 -17.089905 15.531860 11.281867 0.614471 0.004430 -0.760275 0.000000 0.000000 0.000000 -43.592863 -53.048406 -36.580321 7.724559 -11.296032 -7.635206 41.744993 -4.611349 -3.453008 -18.722086 -13.441542 -2.008304 -1.102507 -0.046178 2.411155 0.000000 0.000000 0.000000 -43.592863 -53.048406 -36.580321 11.102753 -4.456638 -1.777899 3.545656 -2.400650 -0.151373 0.000000 0.000000 0.000000 0.000000 0.000000 0.000000 3.557024 -2.388377 -0.108336 1.155380 0.452772 -1.005907 -8.400940 -0.189621 4.074201 0.000000 0.000000 0.000000 3.557024 -2.388377 -0.108336 0.530225 -16.001853 -10.535901 0.000000 0.000000 0.000000 -20.517677 4.048755 -37.315612 0.000001 -67.399323 0.000001 0.000000 0.000000 0.000000 3.557024 -2.388377 -0.108336 0.015152 14.071197 15.527178 0.000000 0.000000 0.000000 -11.349649 -5.026741 60.523351 0.000012 39.572791 -0.000024 0.000000 0.000000 0.000000 
9.863222 87.164116 12.439083 0.000000 0.000000 0.000000 -45.945074 -54.778332 -39.354631 5.948761 16.389239 2.495118 33.007278 6.075230 -9.425491 -17.608894 15.669945 10.642535 0.706648 0.005723 -0.826352 0.000000 0.000000 0.000000 -45.945074 -54.778332 -39.354631 9.424884 -12.731172 -8.249846 42.445934 -5.228694 -2.375377 -19.807216 -16.776942 -3.027638 -1.258102 -0.062551 2.797479 0.000000 0.000000 0.000000 -45.945074 -54.778332 -39.354631 11.094598 -4.381116 -1.887837 3.545656 -2.400646 -0.151373 0.000000 0.000000 0.000000 0.000000 0.000000 0.000000 3.557024 -2.388379 -0.108335 1.156524 0.471206 -1.061432 -8.404216 -0.055277 3.939225 0.000000 0.000000 0.000000 3.557024 -2.388379 -0.108335 0.516011 -15.929499 -10.617569 0.000000 0.000000 0.000000 -20.678415 4.051667 -37.374071 0.000022 -67.374530 0.000016 0.000000 0.000000 0.000000 3.557024 -2.388379 -0.108335 0.022863 14.127346 15.445124 0.000000 0.000000 0.000000 -11.430599 -5.204997 60.643228 0.000012 39.530765 -0.000014 0.000000 0.000000 0.000000 
